<svg width="274" height="101" viewBox="0 0 274 101" fill="none" xmlns="http://www.w3.org/2000/svg">
<g opacity="0.3">
<path d="M13.1633 7.54086C13.1633 11.1758 10.2166 14.1225 6.58163 14.1225C2.9467 14.1225 0 11.1758 0 7.54086C0 3.90592 2.9467 0.959229 6.58163 0.959229C10.2166 0.959229 13.1633 3.90592 13.1633 7.54086Z" fill="#4BCD5C"/>
<path d="M13.1633 36.5001C13.1633 40.135 10.2166 43.0817 6.58163 43.0817C2.9467 43.0817 0 40.135 0 36.5001C0 32.8651 2.9467 29.9184 6.58163 29.9184C10.2166 29.9184 13.1633 32.8651 13.1633 36.5001Z" fill="#4BCD5C"/>
<path d="M13.1633 65.4592C13.1633 69.0942 10.2166 72.0409 6.58163 72.0409C2.9467 72.0409 0 69.0942 0 65.4592C0 61.8243 2.9467 58.8776 6.58163 58.8776C10.2166 58.8776 13.1633 61.8243 13.1633 65.4592Z" fill="#4BCD5C"/>
<path d="M13.1633 94.4184C13.1633 98.0534 10.2166 101 6.58163 101C2.9467 101 0 98.0534 0 94.4184C0 90.7835 2.9467 87.8368 6.58163 87.8368C10.2166 87.8368 13.1633 90.7835 13.1633 94.4184Z" fill="#4BCD5C"/>
<path d="M42.1225 7.54086C42.1225 11.1758 39.1758 14.1225 35.5409 14.1225C31.9059 14.1225 28.9592 11.1758 28.9592 7.54086C28.9592 3.90592 31.9059 0.959229 35.5409 0.959229C39.1758 0.959229 42.1225 3.90592 42.1225 7.54086Z" fill="#4BCD5C"/>
<path d="M42.1225 36.5001C42.1225 40.135 39.1758 43.0817 35.5409 43.0817C31.9059 43.0817 28.9592 40.135 28.9592 36.5001C28.9592 32.8651 31.9059 29.9184 35.5409 29.9184C39.1758 29.9184 42.1225 32.8651 42.1225 36.5001Z" fill="#4BCD5C"/>
<path d="M42.1225 65.4592C42.1225 69.0942 39.1758 72.0409 35.5409 72.0409C31.9059 72.0409 28.9592 69.0942 28.9592 65.4592C28.9592 61.8243 31.9059 58.8776 35.5409 58.8776C39.1758 58.8776 42.1225 61.8243 42.1225 65.4592Z" fill="#4BCD5C"/>
<path d="M42.1225 94.4184C42.1225 98.0534 39.1758 101 35.5409 101C31.9059 101 28.9592 98.0534 28.9592 94.4184C28.9592 90.7835 31.9059 87.8368 35.5409 87.8368C39.1758 87.8368 42.1225 90.7835 42.1225 94.4184Z" fill="#4BCD5C"/>
<path d="M71.0817 7.54086C71.0817 11.1758 68.135 14.1225 64.5001 14.1225C60.8651 14.1225 57.9184 11.1758 57.9184 7.54086C57.9184 3.90592 60.8651 0.959229 64.5001 0.959229C68.135 0.959229 71.0817 3.90592 71.0817 7.54086Z" fill="#4BCD5C"/>
<path d="M71.0817 36.5001C71.0817 40.135 68.135 43.0817 64.5001 43.0817C60.8651 43.0817 57.9184 40.135 57.9184 36.5001C57.9184 32.8651 60.8651 29.9184 64.5001 29.9184C68.135 29.9184 71.0817 32.8651 71.0817 36.5001Z" fill="#4BCD5C"/>
<path d="M71.0817 65.4592C71.0817 69.0942 68.135 72.0409 64.5001 72.0409C60.8651 72.0409 57.9184 69.0942 57.9184 65.4592C57.9184 61.8243 60.8651 58.8776 64.5001 58.8776C68.135 58.8776 71.0817 61.8243 71.0817 65.4592Z" fill="#4BCD5C"/>
<path d="M71.0817 94.4184C71.0817 98.0534 68.135 101 64.5001 101C60.8651 101 57.9184 98.0534 57.9184 94.4184C57.9184 90.7835 60.8651 87.8368 64.5001 87.8368C68.135 87.8368 71.0817 90.7835 71.0817 94.4184Z" fill="#4BCD5C"/>
<path d="M100.041 7.54086C100.041 11.1758 97.094 14.1225 93.4591 14.1225C89.8242 14.1225 86.8775 11.1758 86.8775 7.54086C86.8775 3.90592 89.8242 0.959229 93.4591 0.959229C97.094 0.959229 100.041 3.90592 100.041 7.54086Z" fill="#4BCD5C"/>
<path d="M100.041 36.5001C100.041 40.135 97.094 43.0817 93.4591 43.0817C89.8242 43.0817 86.8775 40.135 86.8775 36.5001C86.8775 32.8651 89.8242 29.9184 93.4591 29.9184C97.094 29.9184 100.041 32.8651 100.041 36.5001Z" fill="#4BCD5C"/>
<path d="M100.041 65.4592C100.041 69.0942 97.094 72.0409 93.4591 72.0409C89.8242 72.0409 86.8775 69.0942 86.8775 65.4592C86.8775 61.8243 89.8242 58.8776 93.4591 58.8776C97.094 58.8776 100.041 61.8243 100.041 65.4592Z" fill="#4BCD5C"/>
<path d="M100.041 94.4184C100.041 98.0534 97.094 101 93.4591 101C89.8242 101 86.8775 98.0534 86.8775 94.4184C86.8775 90.7835 89.8242 87.8368 93.4591 87.8368C97.094 87.8368 100.041 90.7835 100.041 94.4184Z" fill="#4BCD5C"/>
<path d="M129 7.54086C129 11.1758 126.053 14.1225 122.418 14.1225C118.783 14.1225 115.837 11.1758 115.837 7.54086C115.837 3.90592 118.783 0.959229 122.418 0.959229C126.053 0.959229 129 3.90592 129 7.54086Z" fill="#4BCD5C"/>
<path d="M129 36.5001C129 40.135 126.053 43.0817 122.418 43.0817C118.783 43.0817 115.837 40.135 115.837 36.5001C115.837 32.8651 118.783 29.9184 122.418 29.9184C126.053 29.9184 129 32.8651 129 36.5001Z" fill="#4BCD5C"/>
<path d="M129 65.4592C129 69.0942 126.053 72.0409 122.418 72.0409C118.783 72.0409 115.837 69.0942 115.837 65.4592C115.837 61.8243 118.783 58.8776 122.418 58.8776C126.053 58.8776 129 61.8243 129 65.4592Z" fill="#4BCD5C"/>
<path d="M129 94.4184C129 98.0534 126.053 101 122.418 101C118.783 101 115.837 98.0534 115.837 94.4184C115.837 90.7835 118.783 87.8368 122.418 87.8368C126.053 87.8368 129 90.7835 129 94.4184Z" fill="#4BCD5C"/>
<path d="M157.959 7.54086C157.959 11.1758 155.012 14.1225 151.378 14.1225C147.743 14.1225 144.796 11.1758 144.796 7.54086C144.796 3.90592 147.743 0.959229 151.378 0.959229C155.012 0.959229 157.959 3.90592 157.959 7.54086Z" fill="#4BCD5C"/>
<path d="M157.959 36.5001C157.959 40.135 155.012 43.0817 151.378 43.0817C147.743 43.0817 144.796 40.135 144.796 36.5001C144.796 32.8651 147.743 29.9184 151.378 29.9184C155.012 29.9184 157.959 32.8651 157.959 36.5001Z" fill="#4BCD5C"/>
<path d="M157.959 65.4592C157.959 69.0942 155.012 72.0409 151.378 72.0409C147.743 72.0409 144.796 69.0942 144.796 65.4592C144.796 61.8243 147.743 58.8776 151.378 58.8776C155.012 58.8776 157.959 61.8243 157.959 65.4592Z" fill="#4BCD5C"/>
<path d="M157.959 94.4184C157.959 98.0534 155.012 101 151.378 101C147.743 101 144.796 98.0534 144.796 94.4184C144.796 90.7835 147.743 87.8368 151.378 87.8368C155.012 87.8368 157.959 90.7835 157.959 94.4184Z" fill="#4BCD5C"/>
<path d="M186.918 7.54086C186.918 11.1758 183.972 14.1225 180.337 14.1225C176.702 14.1225 173.755 11.1758 173.755 7.54086C173.755 3.90592 176.702 0.959229 180.337 0.959229C183.972 0.959229 186.918 3.90592 186.918 7.54086Z" fill="#4BCD5C"/>
<path d="M186.918 36.5001C186.918 40.135 183.972 43.0817 180.337 43.0817C176.702 43.0817 173.755 40.135 173.755 36.5001C173.755 32.8651 176.702 29.9184 180.337 29.9184C183.972 29.9184 186.918 32.8651 186.918 36.5001Z" fill="#4BCD5C"/>
<path d="M186.918 65.4592C186.918 69.0942 183.972 72.0409 180.337 72.0409C176.702 72.0409 173.755 69.0942 173.755 65.4592C173.755 61.8243 176.702 58.8776 180.337 58.8776C183.972 58.8776 186.918 61.8243 186.918 65.4592Z" fill="#4BCD5C"/>
<path d="M186.918 94.4184C186.918 98.0534 183.972 101 180.337 101C176.702 101 173.755 98.0534 173.755 94.4184C173.755 90.7835 176.702 87.8368 180.337 87.8368C183.972 87.8368 186.918 90.7835 186.918 94.4184Z" fill="#4BCD5C"/>
<path d="M215.878 7.54086C215.878 11.1758 212.931 14.1225 209.296 14.1225C205.661 14.1225 202.714 11.1758 202.714 7.54086C202.714 3.90592 205.661 0.959229 209.296 0.959229C212.931 0.959229 215.878 3.90592 215.878 7.54086Z" fill="#4BCD5C"/>
<path d="M215.878 36.5001C215.878 40.135 212.931 43.0817 209.296 43.0817C205.661 43.0817 202.714 40.135 202.714 36.5001C202.714 32.8651 205.661 29.9184 209.296 29.9184C212.931 29.9184 215.878 32.8651 215.878 36.5001Z" fill="#4BCD5C"/>
<path d="M215.878 65.4592C215.878 69.0942 212.931 72.0409 209.296 72.0409C205.661 72.0409 202.714 69.0942 202.714 65.4592C202.714 61.8243 205.661 58.8776 209.296 58.8776C212.931 58.8776 215.878 61.8243 215.878 65.4592Z" fill="#4BCD5C"/>
<path d="M215.878 94.4184C215.878 98.0534 212.931 101 209.296 101C205.661 101 202.714 98.0534 202.714 94.4184C202.714 90.7835 205.661 87.8368 209.296 87.8368C212.931 87.8368 215.878 90.7835 215.878 94.4184Z" fill="#4BCD5C"/>
<path d="M244.837 7.54086C244.837 11.1758 241.89 14.1225 238.255 14.1225C234.62 14.1225 231.673 11.1758 231.673 7.54086C231.673 3.90592 234.62 0.959229 238.255 0.959229C241.89 0.959229 244.837 3.90592 244.837 7.54086Z" fill="#4BCD5C"/>
<path d="M244.837 36.5001C244.837 40.135 241.89 43.0817 238.255 43.0817C234.62 43.0817 231.673 40.135 231.673 36.5001C231.673 32.8651 234.62 29.9184 238.255 29.9184C241.89 29.9184 244.837 32.8651 244.837 36.5001Z" fill="#4BCD5C"/>
<path d="M244.837 65.4592C244.837 69.0942 241.89 72.0409 238.255 72.0409C234.62 72.0409 231.673 69.0942 231.673 65.4592C231.673 61.8243 234.62 58.8776 238.255 58.8776C241.89 58.8776 244.837 61.8243 244.837 65.4592Z" fill="#4BCD5C"/>
<path d="M244.837 94.4184C244.837 98.0534 241.89 101 238.255 101C234.62 101 231.673 98.0534 231.673 94.4184C231.673 90.7835 234.62 87.8368 238.255 87.8368C241.89 87.8368 244.837 90.7835 244.837 94.4184Z" fill="#4BCD5C"/>
<path d="M273.796 7.54086C273.796 11.1758 270.849 14.1225 267.214 14.1225C263.579 14.1225 260.633 11.1758 260.633 7.54086C260.633 3.90592 263.579 0.959229 267.214 0.959229C270.849 0.959229 273.796 3.90592 273.796 7.54086Z" fill="#4BCD5C"/>
<path d="M273.796 36.5001C273.796 40.135 270.849 43.0817 267.214 43.0817C263.579 43.0817 260.633 40.135 260.633 36.5001C260.633 32.8651 263.579 29.9184 267.214 29.9184C270.849 29.9184 273.796 32.8651 273.796 36.5001Z" fill="#4BCD5C"/>
<path d="M273.796 65.4592C273.796 69.0942 270.849 72.0409 267.214 72.0409C263.579 72.0409 260.633 69.0942 260.633 65.4592C260.633 61.8243 263.579 58.8776 267.214 58.8776C270.849 58.8776 273.796 61.8243 273.796 65.4592Z" fill="#4BCD5C"/>
<path d="M273.796 94.4184C273.796 98.0534 270.849 101 267.214 101C263.579 101 260.633 98.0534 260.633 94.4184C260.633 90.7835 263.579 87.8368 267.214 87.8368C270.849 87.8368 273.796 90.7835 273.796 94.4184Z" fill="#4BCD5C"/>
</g>
</svg>
